<?xml version="1.0" encoding="UTF-8"?>
<svg id="Livello_2" xmlns="http://www.w3.org/2000/svg" viewBox="0 0 656.69 110.52">
  <defs>
    <style>
      .cls-1 {
        fill: #e9e9e9;
      }
    </style>
  </defs>
  <g id="Livello_1-2" data-name="Livello_1">
    <g>
      <g>
        <path class="cls-1" d="M48.48,86.22c3.86,0,7.05-.66,9.55-1.98,2.51-1.32,4.2-2.39,5.08-3.2l14.13,20.94c-1.08.88-2.95,2.02-5.59,3.4-2.64,1.39-5.95,2.59-9.91,3.61-3.96,1.02-8.49,1.52-13.57,1.52-9.55,0-17.96-1.81-25.21-5.44-7.25-3.62-12.89-8.76-16.92-15.4-4.03-6.64-6.05-14.43-6.05-23.38s2.02-16.8,6.05-23.38c4.03-6.57,9.67-11.67,16.92-15.3,7.25-3.62,15.65-5.44,25.21-5.44,5.01,0,9.5.53,13.47,1.58,3.96,1.05,7.3,2.24,10.01,3.56,2.71,1.32,4.61,2.46,5.69,3.4l-14.43,21.14c-.47-.47-1.34-1.15-2.59-2.03-1.25-.88-2.86-1.66-4.83-2.34-1.97-.68-4.3-1.02-7.01-1.02-3.32,0-6.42.85-9.3,2.54-2.88,1.69-5.2,4.03-6.96,7.01-1.76,2.98-2.64,6.4-2.64,10.27s.88,7.3,2.64,10.32c1.76,3.02,4.08,5.37,6.96,7.06,2.88,1.69,5.98,2.54,9.3,2.54Z"/>
        <path class="cls-1" d="M116.07,110.52c-9.15,0-17.26-1.88-24.34-5.64-7.08-3.76-12.64-8.94-16.67-15.55-4.03-6.61-6.05-14.18-6.05-22.72s2.02-16.14,6.05-22.82c4.03-6.67,9.59-11.94,16.67-15.8,7.08-3.86,15.19-5.79,24.34-5.79s17.21,1.93,24.19,5.79c6.98,3.86,12.43,9.13,16.36,15.8,3.93,6.67,5.89,14.28,5.89,22.82s-1.97,16.11-5.89,22.72c-3.93,6.61-9.39,11.79-16.36,15.55-6.98,3.76-15.04,5.64-24.19,5.64ZM116.07,85.11c3.52,0,6.57-.78,9.15-2.34,2.57-1.56,4.57-3.76,6-6.61,1.42-2.85,2.13-6.06,2.13-9.66s-.71-6.91-2.13-9.76c-1.42-2.85-3.42-5.08-6-6.71-2.58-1.63-5.63-2.44-9.15-2.44s-6.59.81-9.2,2.44c-2.61,1.63-4.64,3.86-6.1,6.71-1.46,2.85-2.19,6.1-2.19,9.76s.73,6.81,2.19,9.66c1.46,2.85,3.49,5.05,6.1,6.61,2.61,1.56,5.67,2.34,9.2,2.34Z"/>
        <path class="cls-1" d="M223.81,22.19c5.83,0,11.52,1.19,17.08,3.56,5.56,2.37,10.13,6.12,13.72,11.23,3.59,5.12,5.39,11.84,5.39,20.18v53.36h-31v-48.28c0-5.96-1.42-10.45-4.27-13.47-2.85-3.01-6.57-4.52-11.18-4.52-3.05,0-5.91.8-8.59,2.39-2.68,1.59-4.85,3.83-6.51,6.71-1.66,2.88-2.49,6.18-2.49,9.91v47.26h-30.9V22.19h30.9v14.74c.81-2.24,2.52-4.49,5.13-6.76,2.61-2.27,5.9-4.17,9.86-5.69s8.25-2.29,12.86-2.29Z"/>
        <path class="cls-1" d="M322.19,22.19c5.83,0,11.52,1.19,17.08,3.56,5.56,2.37,10.13,6.12,13.72,11.23,3.59,5.12,5.39,11.84,5.39,20.18v53.36h-31v-48.28c0-5.96-1.42-10.45-4.27-13.47-2.85-3.01-6.57-4.52-11.18-4.52-3.05,0-5.91.8-8.59,2.39-2.68,1.59-4.85,3.83-6.51,6.71-1.66,2.88-2.49,6.18-2.49,9.91v47.26h-30.9V22.19h30.9v14.74c.81-2.24,2.52-4.49,5.13-6.76,2.61-2.27,5.9-4.17,9.86-5.69,3.96-1.52,8.25-2.29,12.86-2.29Z"/>
        <path class="cls-1" d="M390.19,72.91c.2,2.98,1.15,5.63,2.85,7.93,1.69,2.3,4.05,4.12,7.06,5.44,3.01,1.32,6.59,1.98,10.72,1.98s7.47-.41,10.62-1.22c3.15-.81,5.89-1.83,8.23-3.05s4.15-2.47,5.44-3.76l11.99,19.11c-1.69,1.83-4.08,3.61-7.17,5.34-3.08,1.73-7.13,3.14-12.15,4.22-5.02,1.08-11.35,1.63-19.01,1.63-9.22,0-17.42-1.73-24.6-5.18-7.18-3.46-12.84-8.54-16.97-15.25-4.13-6.71-6.2-14.91-6.2-24.6,0-8.13,1.78-15.47,5.34-22,3.56-6.54,8.72-11.72,15.5-15.55,6.78-3.83,14.94-5.74,24.5-5.74s16.96,1.66,23.63,4.98c6.67,3.32,11.82,8.25,15.45,14.79,3.62,6.54,5.44,14.69,5.44,24.44,0,.54-.02,1.63-.05,3.25-.03,1.63-.12,2.71-.25,3.25h-60.37ZM421.8,56.75c-.07-2.17-.64-4.32-1.73-6.45-1.08-2.13-2.71-3.9-4.88-5.29-2.17-1.39-4.95-2.08-8.33-2.08s-6.25.66-8.59,1.98c-2.34,1.32-4.12,3.03-5.34,5.13-1.22,2.1-1.9,4.34-2.03,6.71h30.9Z"/>
        <path class="cls-1" d="M512.86,63.25l39.38,47.26h-34.25l-23.63-28.15-19.72,28.15h-31.91l35.37-44.82-35.37-43.5h34.56l19.01,23.89,23.17-23.89h31.3l-37.91,41.06Z"/>
        <path class="cls-1" d="M604.44,110.52v-15.96c-.61,1.36-2.15,3.32-4.62,5.9-2.47,2.58-5.74,4.9-9.81,6.96-4.07,2.07-8.81,3.1-14.23,3.1-8.13,0-15.25-1.98-21.34-5.95-6.1-3.96-10.84-9.28-14.23-15.96-3.39-6.67-5.08-14.08-5.08-22.21s1.69-15.53,5.08-22.21c3.39-6.67,8.13-12.01,14.23-16.01,6.1-4,13.21-6,21.34-6,5.22,0,9.79.83,13.72,2.49,3.93,1.66,7.11,3.63,9.55,5.9,2.44,2.27,4.13,4.35,5.08,6.25l-.1-14.64h30.69l.1,88.32h-30.39ZM565.41,66.4c0,3.8.88,7.2,2.64,10.21,1.76,3.02,4.12,5.37,7.06,7.06,2.95,1.69,6.22,2.54,9.81,2.54s7.01-.85,9.86-2.54c2.85-1.69,5.1-4.05,6.76-7.06,1.66-3.01,2.49-6.42,2.49-10.21s-.83-7.2-2.49-10.21c-1.66-3.01-3.91-5.39-6.76-7.11-2.85-1.73-6.13-2.59-9.86-2.59s-6.86.86-9.81,2.59c-2.95,1.73-5.3,4.1-7.06,7.11-1.76,3.02-2.64,6.42-2.64,10.21Z"/>
      </g>
      <path class="cls-1" d="M634.63,11.04c0-1.53.28-2.96.85-4.29.57-1.33,1.36-2.5,2.38-3.51,1.02-1.01,2.19-1.8,3.51-2.38,1.33-.57,2.75-.86,4.26-.86s2.96.29,4.29.86c1.33.58,2.5,1.37,3.51,2.38,1.01,1.01,1.8,2.18,2.38,3.51.57,1.33.86,2.76.86,4.29s-.29,2.94-.86,4.26c-.58,1.33-1.37,2.5-2.38,3.51-1.01,1.02-2.18,1.81-3.51,2.38-1.33.57-2.76.85-4.29.85s-2.94-.28-4.26-.85c-1.33-.57-2.5-1.36-3.51-2.38-1.02-1.02-1.81-2.19-2.38-3.51-.57-1.33-.85-2.75-.85-4.26ZM637.45,11.04c0,1.12.21,2.17.64,3.17.42.99,1.01,1.86,1.77,2.61.75.75,1.62,1.34,2.61,1.77.99.43,2.05.64,3.18.64s2.19-.21,3.18-.64c.99-.43,1.87-1.02,2.63-1.77.76-.75,1.35-1.62,1.77-2.61.42-.99.64-2.05.64-3.17s-.21-2.19-.64-3.18c-.42-.99-1.02-1.87-1.77-2.62-.76-.75-1.63-1.34-2.63-1.77-.99-.43-2.05-.64-3.17-.64s-2.19.22-3.18.64c-.99.43-1.87,1.02-2.62,1.77-.75.75-1.34,1.63-1.77,2.62-.42.99-.64,2.06-.64,3.18ZM646.35,8.61c.33,0,.67.06,1.02.17.34.11.54.19.6.23l1.08-2.23s-.33-.19-.87-.46c-.54-.27-1.33-.41-2.37-.41-.96,0-1.84.23-2.65.69-.81.46-1.46,1.09-1.96,1.87-.49.78-.74,1.66-.74,2.63s.25,1.79.74,2.56c.49.77,1.15,1.38,1.96,1.84.81.46,1.7.69,2.65.69.58,0,1.11-.06,1.58-.19.47-.12.85-.26,1.14-.4.29-.14.46-.22.52-.24l-1.11-2.24c-.08.06-.26.15-.55.25-.29.1-.63.15-1.02.15-.68,0-1.24-.24-1.68-.72-.44-.48-.66-1.06-.66-1.75s.22-1.25.65-1.73c.44-.48.99-.72,1.67-.72Z"/>
    </g>
  </g>
</svg>