<?xml version="1.0" encoding="UTF-8"?>
<svg id="Livello_2" xmlns="http://www.w3.org/2000/svg" viewBox="0 0 1002.84 673.76">
  <defs>
    <style>
      .cls-1 {
        fill: #1c1c1c;
      }

      .cls-2 {
        fill: #dadb00;
      }
    </style>
  </defs>
  <g id="Livello_1-2" data-name="Livello_1">
    <g>
      <g>
        <path class="cls-2" d="M393.85,127.02c-2.72,0-5-.01-7.28,0-36.85.2-73.71.53-110.56.5-6.64,0-9.16,1.36-9.16,8.87,0,29.49.09,59.02.09,88.86,0,7.02,1.92,12.29,7.01,17.33,73.33,72.79,146.45,145.81,219.85,218.54,3.09,3.07,8.39,5.54,12.66,5.54,55.51-.01,111.03-.59,166.54-.81,5.07-.02,6.27-1.83,6.25-6.54-.15-38.02-.18-76.04.03-114.05.03-5.52-1.53-7.09-7.13-7.04-73.71.62-147.42,1.05-221.13,1.4-30.69.15-57.39-28.92-56.92-59.66.76-49.67.31-99.35.35-149.03,0-.9-.27-1.81-.6-3.91Z"/>
        <path class="cls-2" d="M395.37,0c0,43.32,0,85.03,0,127.02,94.57,0,188.92,0,283.9,0,0-42.98,0-85.02,0-127.02-94.38,0-188.72,0-283.9,0Z"/>
      </g>
      <g>
        <g>
          <path class="cls-1" d="M74.04,632.39c5.9,0,10.76-1.12,14.59-3.37,3.83-2.25,6.41-4.07,7.76-5.45l21.57,35.65c-1.66,1.5-4.5,3.43-8.54,5.8-4.04,2.37-9.08,4.41-15.13,6.14-6.05,1.73-12.96,2.6-20.72,2.6-14.59,0-27.42-3.09-38.49-9.26-11.07-6.17-19.69-14.91-25.84-26.22-6.16-11.31-9.24-24.58-9.24-39.81s3.08-28.61,9.24-39.81c6.16-11.19,14.77-19.87,25.84-26.05,11.07-6.17,23.9-9.26,38.49-9.26,7.66,0,14.51.89,20.57,2.68,6.05,1.79,11.15,3.81,15.29,6.06,4.14,2.25,7.04,4.18,8.69,5.8l-22.04,36c-.73-.81-2.04-1.96-3.96-3.46-1.92-1.5-4.37-2.83-7.37-3.98-3-1.15-6.57-1.73-10.71-1.73-5.07,0-9.81,1.44-14.2,4.33-4.4,2.89-7.94,6.87-10.63,11.94-2.69,5.08-4.04,10.9-4.04,17.48s1.34,12.43,4.04,17.57c2.69,5.14,6.23,9.15,10.63,12.03,4.4,2.89,9.13,4.33,14.2,4.33Z"/>
          <path class="cls-1" d="M177.25,673.76c-13.97,0-26.36-3.2-37.17-9.61-10.81-6.4-19.3-15.23-25.46-26.48-6.16-11.25-9.24-24.14-9.24-38.68s3.08-27.49,9.24-38.85c6.16-11.36,14.64-20.34,25.46-26.91,10.81-6.58,23.2-9.87,37.17-9.87s26.28,3.29,36.94,9.87c10.66,6.58,18.99,15.55,24.99,26.91,6,11.37,9,24.32,9,38.85s-3,27.43-9,38.68c-6,11.25-14.33,20.08-24.99,26.48-10.66,6.4-22.97,9.61-36.94,9.61ZM177.25,630.49c5.38,0,10.04-1.33,13.97-3.98,3.93-2.65,6.98-6.4,9.16-11.25,2.17-4.85,3.26-10.33,3.26-16.44s-1.09-11.77-3.26-16.62c-2.17-4.85-5.23-8.65-9.16-11.42-3.93-2.77-8.59-4.15-13.97-4.15s-10.06,1.38-14.05,4.15c-3.98,2.77-7.09,6.58-9.31,11.42-2.23,4.85-3.34,10.38-3.34,16.62s1.11,11.6,3.34,16.44c2.22,4.85,5.33,8.6,9.31,11.25,3.98,2.66,8.67,3.98,14.05,3.98Z"/>
          <path class="cls-1" d="M341.78,523.36c8.9,0,17.59,2.02,26.08,6.06,8.48,4.04,15.47,10.41,20.95,19.12,5.48,8.71,8.23,20.16,8.23,34.35v90.86h-47.34v-82.21c0-10.15-2.17-17.8-6.52-22.93-4.35-5.13-10.04-7.7-17.07-7.7-4.66,0-9.03,1.36-13.12,4.07-4.09,2.71-7.4,6.52-9.93,11.42-2.54,4.91-3.8,10.53-3.8,16.87v80.48h-47.19v-150.4h47.19v25.1c1.24-3.81,3.85-7.64,7.84-11.51,3.98-3.86,9-7.1,15.06-9.69,6.05-2.6,12.6-3.89,19.63-3.89Z"/>
          <path class="cls-1" d="M492.03,523.36c8.9,0,17.59,2.02,26.08,6.06,8.48,4.04,15.47,10.41,20.95,19.12,5.48,8.71,8.23,20.16,8.23,34.35v90.86h-47.34v-82.21c0-10.15-2.17-17.8-6.52-22.93-4.35-5.13-10.04-7.7-17.07-7.7-4.66,0-9.03,1.36-13.12,4.07-4.09,2.71-7.4,6.52-9.93,11.42-2.54,4.91-3.8,10.53-3.8,16.87v80.48h-47.19v-150.4h47.19v25.1c1.24-3.81,3.85-7.64,7.84-11.51,3.98-3.86,9-7.1,15.06-9.69,6.05-2.6,12.6-3.89,19.63-3.89Z"/>
          <path class="cls-1" d="M595.86,609.72c.31,5.08,1.76,9.58,4.35,13.5,2.59,3.92,6.18,7.01,10.79,9.26,4.6,2.25,10.06,3.37,16.37,3.37s11.41-.69,16.22-2.08c4.81-1.38,9-3.12,12.57-5.19,3.57-2.08,6.34-4.21,8.3-6.4l18.32,32.54c-2.59,3.12-6.24,6.14-10.94,9.09-4.71,2.94-10.89,5.34-18.55,7.18-7.66,1.84-17.33,2.77-29.03,2.77-14.07,0-26.59-2.94-37.56-8.83-10.97-5.88-19.61-14.54-25.92-25.96-6.31-11.42-9.47-25.38-9.47-41.88,0-13.85,2.72-26.33,8.15-37.47,5.43-11.13,13.32-19.96,23.67-26.48,10.35-6.52,22.82-9.78,37.41-9.78s25.89,2.83,36.09,8.48c10.19,5.65,18.06,14.05,23.59,25.18,5.53,11.14,8.3,25.01,8.3,41.62,0,.92-.03,2.77-.08,5.54-.05,2.77-.18,4.62-.39,5.54h-92.2ZM644.13,582.2c-.1-3.69-.98-7.36-2.64-10.99-1.66-3.63-4.14-6.63-7.45-9-3.31-2.36-7.55-3.55-12.73-3.55s-9.55,1.13-13.12,3.38c-3.57,2.25-6.29,5.17-8.15,8.74-1.86,3.58-2.9,7.39-3.1,11.42h47.19Z"/>
          <path class="cls-1" d="M783.21,593.28l60.14,80.48h-52.31l-36.08-47.94-30.11,47.94h-48.74l54.01-76.32-54.01-74.08h52.77l29.03,40.67,35.39-40.67h47.81l-57.89,69.92Z"/>
          <path class="cls-1" d="M923.05,673.76v-27.17c-.93,2.31-3.29,5.65-7.06,10.04-3.78,4.39-8.77,8.34-14.98,11.86-6.21,3.52-13.45,5.28-21.73,5.28-12.42,0-23.28-3.37-32.6-10.12-9.31-6.75-16.56-15.81-21.73-27.17-5.18-11.36-7.76-23.97-7.76-37.82s2.59-26.45,7.76-37.82c5.17-11.36,12.42-20.45,21.73-27.26,9.31-6.81,20.18-10.21,32.6-10.21,7.97,0,14.95,1.41,20.95,4.24,6,2.83,10.87,6.17,14.59,10.04,3.72,3.87,6.31,7.42,7.76,10.64l-.16-24.92h46.87l.16,150.4h-46.41ZM863.45,598.65c0,6.46,1.34,12.26,4.04,17.39,2.69,5.14,6.29,9.15,10.79,12.03,4.5,2.89,9.49,4.33,14.98,4.33s10.71-1.44,15.06-4.33c4.35-2.88,7.78-6.89,10.32-12.03,2.53-5.13,3.8-10.93,3.8-17.39s-1.27-12.26-3.8-17.39c-2.54-5.13-5.98-9.17-10.32-12.12-4.35-2.94-9.37-4.41-15.06-4.41s-10.48,1.47-14.98,4.41c-4.5,2.94-8.1,6.98-10.79,12.12-2.69,5.14-4.04,10.93-4.04,17.39Z"/>
        </g>
        <path class="cls-1" d="M969.15,504.38c0-2.6.43-5.03,1.3-7.3.87-2.27,2.08-4.26,3.63-5.99,1.55-1.72,3.34-3.07,5.37-4.05,2.03-.98,4.2-1.47,6.51-1.47s4.51.49,6.55,1.47c2.04.98,3.82,2.33,5.37,4.05,1.54,1.72,2.75,3.72,3.63,5.99.88,2.27,1.32,4.7,1.32,7.3s-.44,5-1.32,7.26c-.88,2.26-2.09,4.26-3.63,5.99-1.54,1.73-3.33,3.08-5.37,4.05-2.04.97-4.22,1.46-6.55,1.46s-4.49-.49-6.51-1.46c-2.03-.97-3.82-2.32-5.37-4.05-1.55-1.73-2.76-3.72-3.63-5.99-.87-2.26-1.3-4.68-1.3-7.26ZM973.46,504.38c0,1.9.32,3.7.97,5.39.65,1.69,1.55,3.18,2.7,4.45,1.15,1.27,2.48,2.27,3.99,3.01,1.51.73,3.13,1.1,4.85,1.1s3.34-.37,4.86-1.1c1.52-.73,2.86-1.73,4.01-3.01,1.16-1.27,2.06-2.75,2.71-4.45.65-1.69.97-3.49.97-5.39s-.32-3.73-.97-5.42c-.65-1.69-1.55-3.18-2.71-4.46-1.16-1.28-2.5-2.29-4.01-3.02-1.52-.73-3.13-1.1-4.84-1.1s-3.34.37-4.86,1.1c-1.52.73-2.85,1.74-4,3.02-1.15,1.28-2.05,2.77-2.7,4.46-.65,1.69-.97,3.5-.97,5.42ZM987.06,500.23c.51,0,1.03.1,1.55.29.53.19.83.33.91.4l1.65-3.79c-.07-.05-.51-.32-1.33-.78-.82-.47-2.03-.7-3.62-.7-1.46,0-2.81.39-4.05,1.18-1.24.79-2.24,1.85-2.99,3.18-.76,1.34-1.13,2.83-1.13,4.48s.38,3.04,1.13,4.35c.75,1.31,1.75,2.35,2.99,3.13,1.24.78,2.59,1.17,4.05,1.17.89,0,1.69-.11,2.41-.32.72-.21,1.3-.43,1.75-.67.44-.24.71-.37.79-.41l-1.7-3.82c-.11.11-.39.25-.84.43-.44.17-.96.26-1.55.26-1.03,0-1.89-.41-2.56-1.22-.67-.81-1.01-1.81-1.01-2.98s.33-2.14,1-2.95c.66-.81,1.51-1.22,2.55-1.22Z"/>
      </g>
    </g>
  </g>
</svg>